# xmcd
#
# Track frame offsets:
#	150
#	13466
#	26388
#	42178
#	58592
#	74897
#	89928
#	103547
#	120215
#	137533
#	150758
#	165098
#	178480
#	187519
#	200673
#	215803
#	231870
#	243703
#	261952
#	279211
#	288623
#	304396
#	321633
#	334517
#
# Disc length: 4697 seconds
#
# Revision: 0
# Processed by: cddbd v1.5.2PL0 Copyright (c) Steve Scherf et al.
# Submitted via: audiograbber 1.83.01
#
DISCID=67125718
DTITLE=Stefan Faschingshits - Faschingshits
DYEAR=1900
DGENRE=gutu
TTITLE0=KÜß MICH BITTE AUF DEN PIPPIMANN
TTITLE1=ZIEH DICH AUS KLEINE MAUS
TTITLE2=LIFE IS LIFE - DJ ÖTZI
TTITLE3=KLINGELING,KLINGELING HIER KOMMT DER EIERMANN - KLAUS and KLAUS
TTITLE4=DU BIST DIE ROSE VOM WÖHRTERSEE
TTITLE5=COUNTRY ROAD - HERMANS HOUSE BAND
TTITLE6=HANG ON SLOOPY - MC COYS
TTITLE7=I CAN GET NO SATISFACTION - ROLLING STONES
TTITLE8=SPEEDY GONZALES
TTITLE9=DIE HÄNDE ZUM HIMMEL
TTITLE10=DIE KARAWANE ZIEHT WEITER 
TTITLE11=WIR MACHEN DURCH BIS MORGEN FRÜH UND SINGEN BUMSFALLERA
TTITLE12=GIMME GOOD LOVING - CRAZY ELEPHANT
TTITLE13=KEINE ANGST HAT DER PAPA MIR GESAGT - STEPHAN REMMLER
TTITLE14=GIANNA - WOFGANG PETRY
TTITLE15=HULA DISCO MELODY
TTITLE16=MARMOR STEI UND EISEN BRICHT - DRAFI DEUTSCHER
TTITLE17=STEYERMANN SEI VERY GOOD
TTITLE18=QUE SERA - HERMANS HOUSE BAND
TTITLE19=DER SCHÖNSTE PLATZ IST IMMER AN DER THEKE
TTITLE20=HEY HO,HEY HO
TTITLE21=NANA NA KISS HIM GOODBY
TTITLE22=HEIDI - GITTE and ERIKA
TTITLE23=WHO THE FUCK IS ALICE
EXTD=
EXTT0=
EXTT1=
EXTT2=
EXTT3=
EXTT4=
EXTT5=
EXTT6=
EXTT7=
EXTT8=
EXTT9=
EXTT10=
EXTT11=
EXTT12=
EXTT13=
EXTT14=
EXTT15=
EXTT16=
EXTT17=
EXTT18=
EXTT19=
EXTT20=
EXTT21=
EXTT22=
EXTT23=
PLAYORDER=
